<?xml version="1.0" encoding="UTF-8"?>
<svg id="Livello_1" data-name="Livello 1" xmlns="http://www.w3.org/2000/svg" viewBox="0 0 983.4 974.34">
  <defs>
    <style>
      .cls-1 {
        fill: #db3b01;
      }

      .cls-2 {
        fill: #035ff2;
      }

      .cls-3 {
        fill: #330cbd;
      }

      .cls-4 {
        fill: #15abe6;
      }
    </style>
  </defs>
  <path class="cls-3" d="M473.67.22v306.4c-14.91,94.49-133.54,190.23-234.01,180.6V187.15C254.1,97.43,368.59-5.37,473.67.22Z"/>
  <path class="cls-1" d="M983.2,461.92l-306.4.36c-94.51-14.8-190.38-133.31-180.88-233.8,100.02-.12,200.05-.24,300.07-.35,89.73,14.35,192.67,128.71,187.2,233.79Z"/>
  <path class="cls-2" d="M745.63,486.67v306.4c-14.91,94.49-133.54,190.23-234.01,180.6v-300.07c14.45-89.72,128.94-192.51,234.01-186.93Z"/>
  <path class="cls-4" d="M487.93,748.64l-306.4.36C87.03,734.2-8.85,615.69.65,515.2c100.02-.12,200.05-.24,300.07-.35,89.73,14.35,192.67,128.71,187.2,233.79Z"/>
</svg>